<?xml version="1.0" encoding="UTF-8"?>
<svg version="1.1" xmlns="http://www.w3.org/2000/svg" width="203" height="202">
<path d="M0 0 C66.99 0 133.98 0 203 0 C203 66.66 203 133.32 203 202 C136.01 202 69.02 202 0 202 C0 135.34 0 68.68 0 0 Z " fill="#FDFDFD" transform="translate(0,0)"/>
<path d="M0 0 C0 6.93 0 13.86 0 21 C2.083125 20.505 4.16625 20.01 6.3125 19.5 C12.625 18 12.625 18 16 18 C16 21.96 16 25.92 16 30 C19.96 30 23.92 30 28 30 C28 58.38 28 86.76 28 116 C-23.15 116 -74.3 116 -127 116 C-127 87.62 -127 59.24 -127 30 C-123.04 30 -119.08 30 -115 30 C-115 26.04 -115 22.08 -115 18 C-103.5 19.875 -103.5 19.875 -99 21 C-99 14.4 -99 7.8 -99 1 C-91.03641011 5.27845185 -83.24073444 9.76931475 -75.5 14.4375 C-74.44941406 15.06720703 -73.39882812 15.69691406 -72.31640625 16.34570312 C-71.27355469 16.97283203 -70.23070312 17.59996094 -69.15625 18.24609375 C-68.13273437 18.86081543 -67.10921875 19.47553711 -66.0546875 20.10888672 C-63.99157045 21.38613294 -61.95497734 22.70709414 -59.9453125 24.06689453 C-58.98367187 24.7164209 -58.02203125 25.36594727 -57.03125 26.03515625 C-56.18111328 26.62820557 -55.33097656 27.22125488 -54.45507812 27.83227539 C-51.4302742 29.27098235 -50.13799521 29.03539707 -47 28 C-41.87646759 25.38800308 -37.31672459 22.14354208 -32.640625 18.80859375 C-29.17690275 16.43625144 -25.58042298 14.33830638 -21.93359375 12.26171875 C-19.85998154 11.14052189 -19.85998154 11.14052189 -19 9 C-17.0893894 8.32961031 -15.17846882 7.6600845 -13.265625 6.99609375 C-10.01406139 5.56652699 -7.47642509 3.47020428 -4.76171875 1.20703125 C-3 0 -3 0 0 0 Z " fill="#EDDF45" transform="translate(151,33)"/>
<path d="M0 0 C7.93612123 4.26673184 15.71629232 8.73180918 23.4375 13.375 C24.47970703 13.99632812 25.52191406 14.61765625 26.59570312 15.2578125 C28.69480077 16.51753136 30.77893795 17.80252337 32.84716797 19.11230469 C35.97580505 21.07195668 35.97580505 21.07195668 39.42236328 22.52050781 C43.08855936 24.34628322 45.38175513 25.83533639 48 29 C49.84255177 34.62043708 49.28403871 40.77410177 49.09197998 46.60345459 C48.99090067 50.3360111 49.00097453 54.06228759 49.03564453 57.79541016 C49.10657028 66.46835439 49.08715837 75.13908183 49.0625 83.8125 C49.041875 94.104375 49.02125 104.39625 49 115 C23.59 115 -1.82 115 -28 115 C-28 86.62 -28 58.24 -28 29 C-24.04 29 -20.08 29 -16 29 C-16 25.04 -16 21.08 -16 17 C-4.5 18.875 -4.5 18.875 0 20 C0 13.4 0 6.8 0 0 Z " fill="#27CA26" transform="translate(52,34)"/>
<path d="M0 0 C0 3.96 0 7.92 0 12 C3.96 12 7.92 12 12 12 C12 40.38 12 68.76 12 98 C-13.41 98 -38.82 98 -65 98 C-62.06937899 95.06937899 -60.29126076 93.38020884 -56.90234375 91.40625 C-56.10973145 90.93896484 -55.31711914 90.47167969 -54.50048828 89.99023438 C-53.65470215 89.49845703 -52.80891602 89.00667969 -51.9375 88.5 C-44.76706895 84.26706037 -37.65844709 79.95722246 -30.625 75.5 C-29.45892212 74.76233398 -29.45892212 74.76233398 -28.26928711 74.00976562 C-26.17486138 72.67997151 -24.08232929 71.34866637 -22 70 C-20.9387793 69.57879883 -19.87755859 69.15759766 -18.78417969 68.72363281 C-15.4029662 65.41594975 -15.53364876 64.36906278 -15.31884766 59.76269531 C-15.31979997 57.11285038 -15.35244073 54.4760413 -15.4140625 51.828125 C-15.42525817 50.42138479 -15.43379661 49.01462112 -15.43978882 47.60784912 C-15.46265937 43.91154991 -15.52156304 40.21667345 -15.5880127 36.52093506 C-15.64947608 32.74722542 -15.67681222 28.97328503 -15.70703125 25.19921875 C-15.77131164 17.79883168 -15.8736651 10.39961545 -16 3 C-13.89679937 2.49595192 -11.79240209 1.99689492 -9.6875 1.5 C-8.51574219 1.2215625 -7.34398437 0.943125 -6.13671875 0.65625 C-3 0 -3 0 0 0 Z " fill="#E86B49" transform="translate(167,51)"/>
<path d="M0 0 C11.625 1.875 11.625 1.875 15 3 C15.00879936 4.19270256 15.00879936 4.19270256 15.01777649 5.40950012 C15.07565652 12.89929596 15.14770558 20.38875733 15.23571491 27.87825489 C15.28046171 31.72879256 15.31970798 35.57922338 15.34643555 39.42993164 C15.37242607 43.14541565 15.41279735 46.8604894 15.46318626 50.57571983 C15.47988396 51.99385161 15.49138017 53.41205439 15.49761391 54.83027077 C15.50722254 56.8151024 15.53696284 58.79980582 15.56762695 60.78442383 C15.57873001 61.91471512 15.58983307 63.04500641 15.60127258 64.20954895 C15.76598503 67.00816801 15.76598503 67.00816801 17.40983582 68.81498718 C19.21065148 70.15698046 21.01864373 71.25262008 23 72.3125 C23.80179688 72.745625 24.60359375 73.17875 25.4296875 73.625 C26.27789062 74.07875 27.12609375 74.5325 28 75 C29.70868913 75.93685136 31.41700769 76.87437885 33.125 77.8125 C36.35484425 79.57796572 39.59626051 81.31658335 42.859375 83.01953125 C43.52437012 83.36846436 44.18936523 83.71739746 44.87451172 84.0769043 C46.17584877 84.75870073 47.47945596 85.43618746 48.78564453 86.10864258 C52.52615012 88.07263238 55.87893348 90.14001129 59 93 C59 93.66 59 94.32 59 95 C59.99 95 60.98 95 62 95 C62 95.66 62 96.32 62 97 C63.485 97.495 63.485 97.495 65 98 C39.59 98 14.18 98 -12 98 C-12 69.62 -12 41.24 -12 12 C-8.04 12 -4.08 12 0 12 C0 8.04 0 4.08 0 0 Z " fill="#03BCD2" transform="translate(36,51)"/>
<path d="M0 0 C4.29 0 8.58 0 13 0 C13 23.76 13 47.52 13 72 C21.91 73.65 30.82 75.3 40 77 C45.0517809 78.03512439 50.09044755 79.0791697 55.125 80.1875 C56.83236328 80.5577832 56.83236328 80.5577832 58.57421875 80.93554688 C64.720466 82.27091346 70.86121537 83.63077848 77 85 C77 85.33 77 85.66 77 86 C51.59 86 26.18 86 0 86 C0 57.62 0 29.24 0 0 Z " fill="#1C3D8D" transform="translate(24,63)"/>
<path d="M0 0 C3.96 0 7.92 0 12 0 C12 28.05 12 56.1 12 85 C-11.43 85 -34.86 85 -59 85 C-59 84.67 -59 84.34 -59 84 C-51.40253314 82.42654413 -43.80351496 80.86075717 -36.20336914 79.30029297 C-33.61804425 78.76853072 -31.03307967 78.23501359 -28.44848633 77.69970703 C-24.73351871 76.930601 -21.0173013 76.16781408 -17.30078125 75.40625 C-16.14540359 75.16563843 -14.99002594 74.92502686 -13.79963684 74.67712402 C-12.17852242 74.34678162 -12.17852242 74.34678162 -10.5246582 74.00976562 C-9.57645706 73.81435181 -8.62825592 73.61893799 -7.65132141 73.41760254 C-5 73 -5 73 0 73 C0 48.91 0 24.82 0 0 Z " fill="#E6205F" transform="translate(167,63)"/>
<path d="M0 0 C3.63 1.98 7.26 3.96 11 6 C9.68 6.33 8.36 6.66 7 7 C7 6.34 7 5.68 7 5 C4.03 4.505 4.03 4.505 1 4 C1 30.07 1 56.14 1 83 C1.66 83 2.32 83 3 83 C3.33 84.32 3.66 85.64 4 87 C7.465 86.505 7.465 86.505 11 86 C11 87.32 11 88.64 11 90 C11.7425 90.28875 12.485 90.5775 13.25 90.875 C15.56739797 91.82302644 17.77917115 92.84845911 20 94 C20 94.66 20 95.32 20 96 C16.87281524 95.35762119 14.45142467 94.27319746 11.6875 92.6875 C10.51767578 92.01847656 10.51767578 92.01847656 9.32421875 91.3359375 C8.17373047 90.67464844 8.17373047 90.67464844 7 90 C5.95779297 89.43152344 5.95779297 89.43152344 4.89453125 88.8515625 C0.1151456 86.23029119 0.1151456 86.23029119 -1 84 C-1.09646872 82.07370908 -1.12796338 80.14403649 -1.12939453 78.21533203 C-1.13254669 76.9987088 -1.13569885 75.78208557 -1.13894653 74.52859497 C-1.13715309 73.18833379 -1.13510125 71.84807293 -1.1328125 70.5078125 C-1.13348711 69.12368757 -1.13445844 67.73956276 -1.13571167 66.35543823 C-1.13719007 63.43828211 -1.13503541 60.52115649 -1.13037109 57.60400391 C-1.12476809 53.92622999 -1.12797751 50.24852996 -1.13382339 46.57075882 C-1.15465773 31.02353907 -1.03624116 15.52001287 0 0 Z " fill="#18C663" transform="translate(52,34)"/>
<path d="M0 0 C3.96 0 7.92 0 12 0 C12 28.05 12 56.1 12 85 C-11.43 85 -34.86 85 -59 85 C-59 84.67 -59 84.34 -59 84 C-55.08470852 83.16011547 -51.16756028 82.32923187 -47.25 81.5 C-45.58324219 81.14228516 -45.58324219 81.14228516 -43.8828125 80.77734375 C-42.81289062 80.55175781 -41.74296875 80.32617188 -40.640625 80.09375 C-39.65610352 79.88427734 -38.67158203 79.67480469 -37.65722656 79.45898438 C-35 79 -35 79 -31 79 C-31 79.66 -31 80.32 -31 81 C-35.95 81.99 -35.95 81.99 -41 83 C-23.84 83.33 -6.68 83.66 11 84 C11 56.61 11 29.22 11 1 C7.37 1 3.74 1 0 1 C0 0.67 0 0.34 0 0 Z " fill="#C02F60" transform="translate(167,63)"/>
<path d="M0 0 C0 4.29 0 8.58 0 13 C-0.33 13 -0.66 13 -1 13 C-1 9.37 -1 5.74 -1 2 C-4.96 2.99 -8.92 3.98 -13 5 C-13.33 25.79 -13.66 46.58 -14 68 C-15.98 68.495 -15.98 68.495 -18 69 C-18.33 70.32 -18.66 71.64 -19 73 C-21.475 73.495 -21.475 73.495 -24 74 C-24 74.99 -24 75.98 -24 77 C-25.98 76.67 -27.96 76.34 -30 76 C-25.51739606 72.2403967 -25.51739606 72.2403967 -22.76307678 70.96066284 C-19.99417478 69.56308545 -18.10091742 68.29671982 -16 66 C-14.72937127 61.23405358 -14.94906672 56.52263913 -15.12109375 51.6328125 C-15.13789743 50.22895399 -15.15070032 48.8250424 -15.15968323 47.42111206 C-15.19391462 43.74043935 -15.28218688 40.06300573 -15.38201904 36.38360596 C-15.4743864 32.6233706 -15.51525384 28.8626073 -15.56054688 25.1015625 C-15.65683285 17.73290423 -15.81025545 10.36690731 -16 3 C-13.89679937 2.49595192 -11.79240209 1.99689492 -9.6875 1.5 C-8.51574219 1.2215625 -7.34398437 0.943125 -6.13671875 0.65625 C-3 0 -3 0 0 0 Z " fill="#D17842" transform="translate(167,51)"/>
<path d="M0 0 C2.79621213 1.18477513 4.75502521 2.0352718 7 4 C7.75782939 7.21034372 7.97696531 9.43925512 7.93359375 12.66796875 C7.94877548 13.57266403 7.96395721 14.47735931 7.979599 15.4094696 C8.02216363 18.60698742 8.01061137 21.80223263 8 25 C8.01627837 27.57244263 8.034784 30.14487185 8.05517578 32.71728516 C8.10688972 40.51503249 8.09287666 48.31209959 8.06866455 56.10992432 C8.05824796 59.83174048 8.05382856 63.55356395 8.04882812 67.27539062 C8.03825324 74.51694633 8.02129422 81.75846701 8 89 C5.5729889 85.25417305 5.69385001 81.51473621 5.68115234 77.20214844 C5.66608391 76.03084381 5.66608391 76.03084381 5.65071106 74.83587646 C5.61987355 72.26038331 5.60284244 69.68499415 5.5859375 67.109375 C5.5672263 65.32146306 5.54765292 63.53355996 5.5272522 61.7456665 C5.4759199 57.0439576 5.43630004 52.34222006 5.39910889 47.64038086 C5.35907614 42.84091095 5.30798046 38.04156027 5.2578125 33.2421875 C5.16104021 23.82820874 5.07663956 14.41416268 5 5 C2.36 5 -0.28 5 -3 5 C-3 4.34 -3 3.68 -3 3 C-2.01 3 -1.02 3 0 3 C0 2.01 0 1.02 0 0 Z " fill="#47BD1C" transform="translate(93,59)"/>
<path d="M0 0 C12 2 12 2 15 3 C14.67 3.66 14.34 4.32 14 5 C12.3745692 4.85904936 10.74965949 4.71207913 9.125 4.5625 C8.22007813 4.48128906 7.31515625 4.40007813 6.3828125 4.31640625 C4 4 4 4 2 3 C2.10739766 13.13546429 2.22000978 23.2708558 2.33933926 33.40618706 C2.39457941 38.11207585 2.44800116 42.81797085 2.49731445 47.52392578 C2.54494188 52.06268969 2.5972841 56.60137667 2.65294075 61.14004898 C2.67337166 62.87443255 2.69208351 64.60883722 2.70907402 66.3432579 C2.73310176 68.76651412 2.76315846 71.18962428 2.79467773 73.61279297 C2.8004332 74.33496002 2.80618866 75.05712708 2.81211853 75.80117798 C2.81623374 79.52545558 2.81623374 79.52545558 4 83 C6.40475501 83.58743291 6.40475501 83.58743291 9.3125 83.9375 C15.66283119 84.89043085 21.79842195 86.35064414 28 88 C28 88.33 28 88.66 28 89 C18.47425791 88.59636686 10.50512412 86.37628103 1 84 C0.67 56.28 0.34 28.56 0 0 Z " fill="#24B1D6" transform="translate(36,51)"/>
<path d="M0 0 C8.18364303 0.68588512 16.15779227 2.32353722 24.19311523 3.95629883 C26.55951319 4.43689341 28.92708894 4.91129712 31.29492188 5.38476562 C32.82298973 5.69234556 34.350987 6.00027647 35.87890625 6.30859375 C36.57496475 6.44825058 37.27102325 6.58790741 37.98817444 6.73179626 C42.69576277 7.69121584 47.34568336 8.80819561 52 10 C52 10.33 52 10.66 52 11 C43.75 10.67 35.5 10.34 27 10 C27.33 9.34 27.66 8.68 28 8 C27.2265625 7.89042969 26.453125 7.78085938 25.65625 7.66796875 C16.10119448 6.21342441 16.10119448 6.21342441 11.6875 4.4375 C8.03536024 2.85251059 8.03536024 2.85251059 4.0625 2.4375 C3.051875 2.293125 2.04125 2.14875 1 2 C0.67 1.34 0.34 0.68 0 0 Z " fill="#0B4992" transform="translate(44,137)"/>
<path d="M0 0 C2.45862401 -0.05383848 4.9160755 -0.09359038 7.375 -0.125 C8.42300781 -0.15013672 8.42300781 -0.15013672 9.4921875 -0.17578125 C11.32897486 -0.19344267 13.16601963 -0.10303261 15 0 C17 2 17 2 17.1953125 4.1640625 C17.17210937 4.97617188 17.14890625 5.78828125 17.125 6.625 C17.10695312 7.44226563 17.08890625 8.25953125 17.0703125 9.1015625 C17.04710937 9.72804687 17.02390625 10.35453125 17 11 C16.01 11 15.02 11 14 11 C14 8.36 14 5.72 14 3 C12.68 3.33 11.36 3.66 10 4 C9.67 6.31 9.34 8.62 9 11 C8.01 11 7.02 11 6 11 C5.67 8.36 5.34 5.72 5 3 C4.01 3.495 4.01 3.495 3 4 C2.59270772 6.32156597 2.25561323 8.6568787 2 11 C1.34 11 0.68 11 0 11 C0 7.37 0 3.74 0 0 Z " fill="#5A5A5A" transform="translate(139,169)"/>
<path d="M0 0 C1 1 1 1 1.1875 4.4375 C1 8 1 8 -1 10 C-4.13704316 10.333728 -6.16554166 10.52849028 -8.875 8.8125 C-10.40659584 6.34492892 -10.42822025 4.85480169 -10 2 C-7.59027568 -2.25245468 -4.23782457 -0.94173879 0 0 Z " fill="#404040" transform="translate(50,170)"/>
<path d="M0 0 C0.33 0 0.66 0 1 0 C1 23.76 1 47.52 1 72 C-14 75 -14 75 -18 74 C-15 72 -15 72 0 71 C0 47.57 0 24.14 0 0 Z " fill="#F65857" transform="translate(166,64)"/>
<path d="M0 0 C6.31882827 1.37365832 11.8475911 4.06269301 17 8 C18.29296875 10.1953125 18.29296875 10.1953125 19 12 C19.99 12 20.98 12 22 12 C22 12.66 22 13.32 22 14 C17.83261459 13.21208681 13.66623103 12.41899264 9.5 11.625 C8.32695313 11.40328125 7.15390625 11.1815625 5.9453125 10.953125 C-0.08939506 9.80042805 -6.06042788 8.5731045 -12 7 C-12 6.67 -12 6.34 -12 6 C-10.06280622 5.94593878 -8.12518079 5.90717975 -6.1875 5.875 C-5.10855469 5.85179687 -4.02960938 5.82859375 -2.91796875 5.8046875 C0 6 0 6 3 8 C5.50896686 8.45601261 5.50896686 8.45601261 8.1875 8.625 C9.08855469 8.69976562 9.98960938 8.77453125 10.91796875 8.8515625 C11.60503906 8.90054688 12.29210937 8.94953125 13 9 C12.13973014 6.69844477 12.13973014 6.69844477 9.3125 6.0625 C8.219375 5.711875 7.12625 5.36125 6 5 C3.98529902 4.02995879 1.98077953 3.03755118 0 2 C0 1.34 0 0.68 0 0 Z " fill="#1BA9CC" transform="translate(76,134)"/>
<path d="M0 0 C0.99 0 1.98 0 3 0 C3.33 1.32 3.66 2.64 4 4 C4.763125 3.938125 5.52625 3.87625 6.3125 3.8125 C9 4 9 4 10.875 5.0625 C12.66310335 8.14201133 11.74592606 10.64333273 11 14 C10 15 10 15 6.9375 15.0625 C5.968125 15.041875 4.99875 15.02125 4 15 C5 13 5 13 8 12 C8.33 10.35 8.66 8.7 9 7 C7.35 7.33 5.7 7.66 4 8 C3.67 10.31 3.34 12.62 3 15 C2.01 15 1.02 15 0 15 C0 10.05 0 5.1 0 0 Z " fill="#535353" transform="translate(76,165)"/>
<path d="M0 0 C2 2 2 2 2.125 4.625 C2.08375 5.40875 2.0425 6.1925 2 7 C-0.31 7.33 -2.62 7.66 -5 8 C-2.03 8.495 -2.03 8.495 1 9 C0.67 9.66 0.34 10.32 0 11 C-5.42857143 11.36190476 -5.42857143 11.36190476 -7.875 9.8125 C-9.40659584 7.34492892 -9.42822025 5.85480169 -9 3 C-6.73157826 -0.65467947 -4.03373275 -0.4291205 0 0 Z " fill="#3B3B3B" transform="translate(166,169)"/>
<path d="M0 0 C2.27864583 0.06510417 4.55729167 0.13020833 6.8359375 0.1953125 C6.8359375 3.8253125 6.8359375 7.4553125 6.8359375 11.1953125 C5.8459375 11.1953125 4.8559375 11.1953125 3.8359375 11.1953125 C3.5059375 8.8853125 3.1759375 6.5753125 2.8359375 4.1953125 C1.5159375 4.1953125 0.1959375 4.1953125 -1.1640625 4.1953125 C-0.89730046 6.18022892 -0.89730046 6.18022892 -0.1640625 8.1953125 C0.8259375 8.5253125 1.8159375 8.8553125 2.8359375 9.1953125 C2.8359375 9.8553125 2.8359375 10.5153125 2.8359375 11.1953125 C0.5234375 11.4453125 0.5234375 11.4453125 -2.1640625 11.1953125 C-4.0390625 9.5078125 -4.0390625 9.5078125 -5.1640625 7.1953125 C-4.89215678 3.38863236 -4.29304964 0.38745935 0 0 Z " fill="#414141" transform="translate(68.1640625,168.8046875)"/>
<path d="M0 0 C0.99 0 1.98 0 3 0 C4.32 3.3 5.64 6.6 7 10 C8.32 6.7 9.64 3.4 11 0 C11.99 0 12.98 0 14 0 C10.92482916 10.55808656 10.92482916 10.55808656 9 15 C7.171875 14.87109375 7.171875 14.87109375 5 14 C3.515625 11.34765625 3.515625 11.34765625 2.25 8.0625 C1.82203125 6.98097656 1.3940625 5.89945313 0.953125 4.78515625 C0 2 0 2 0 0 Z " fill="#333333" transform="translate(25,165)"/>
<path d="M0 0 C2.375 -0.125 2.375 -0.125 5 0 C7 2 7 2 7.125 4.625 C7.08375 5.40875 7.0425 6.1925 7 7 C5.68 7.33 4.36 7.66 3 8 C3.99 8.66 4.98 9.32 6 10 C5 11 5 11 2.125 11.25 C-1 11 -1 11 -2.875 9.8125 C-4.39684676 7.36063578 -4.43566323 5.83181098 -4 3 C-3.01 2.34 -2.02 1.68 -1 1 C-0.67 1.66 -0.34 2.32 0 3 C0.99 3 1.98 3 3 3 C2.01 2.01 1.02 1.02 0 0 Z " fill="#333333" transform="translate(93,169)"/>
<path d="M0 0 C1.65 0.33 3.3 0.66 5 1 C5.33 2.98 5.66 4.96 6 7 C4.68 7.33 3.36 7.66 2 8 C2.99 8.66 3.98 9.32 5 10 C4 11 4 11 1.125 11.25 C-2 11 -2 11 -3.875 9.8125 C-5.34781139 7.43963721 -5.22223194 5.74086056 -5 3 C-3.68 2.34 -2.36 1.68 -1 1 C-1 1.66 -1 2.32 -1 3 C-0.01 3 0.98 3 2 3 C1.34 2.67 0.68 2.34 0 2 C0 1.34 0 0.68 0 0 Z " fill="#313131" transform="translate(131,169)"/>
<path d="M0 0 C0.99 0 1.98 0 3 0 C3 1.98 3 3.96 3 6 C3.99 5.34 4.98 4.68 6 4 C6.99 4.33 7.98 4.66 9 5 C7.68 6.65 6.36 8.3 5 10 C6.32 11.65 7.64 13.3 9 15 C6.83125748 14.49396008 5.00032373 14.00016187 3 13 C3 13.66 3 14.32 3 15 C2.01 15 1.02 15 0 15 C0 10.05 0 5.1 0 0 Z " fill="#414141" transform="translate(53,165)"/>
<path d="M0 0 C6.0546875 -0.1953125 6.0546875 -0.1953125 8 0 C10 2 10 2 10.1953125 4.1640625 C10.17210938 4.97617188 10.14890625 5.78828125 10.125 6.625 C10.10695313 7.44226563 10.08890625 8.25953125 10.0703125 9.1015625 C10.03550781 10.04128906 10.03550781 10.04128906 10 11 C9.34 11 8.68 11 8 11 C7.67 8.69 7.34 6.38 7 4 C5.68 3.67 4.36 3.34 3 3 C3 5.64 3 8.28 3 11 C2.01 11 1.02 11 0 11 C0 7.37 0 3.74 0 0 Z " fill="#3E3E3E" transform="translate(106,169)"/>
<path d="M0 0 C6.0546875 -0.1953125 6.0546875 -0.1953125 8 0 C10 2 10 2 10.1953125 4.1640625 C10.17210937 4.97617188 10.14890625 5.78828125 10.125 6.625 C10.10695312 7.44226563 10.08890625 8.25953125 10.0703125 9.1015625 C10.03550781 10.04128906 10.03550781 10.04128906 10 11 C9.34 11 8.68 11 8 11 C7.67 8.69 7.34 6.38 7 4 C5.68 4 4.36 4 3 4 C2.67 6.31 2.34 8.62 2 11 C1.34 11 0.68 11 0 11 C0 7.37 0 3.74 0 0 Z " fill="#3A3A3A" transform="translate(170,169)"/>
<path d="M0 0 C0.33 0 0.66 0 1 0 C1 5.61 1 11.22 1 17 C-0.32 17.33 -1.64 17.66 -3 18 C-3.33 19.32 -3.66 20.64 -4 22 C-5.65 22.33 -7.3 22.66 -9 23 C-9 23.99 -9 24.98 -9 26 C-10.98 25.67 -12.96 25.34 -15 25 C-12.6533045 23.03180377 -10.48627374 21.22703782 -7.69921875 19.92578125 C-4.89144505 18.50622102 -3.06915626 17.39339517 -1 15 C0.08692865 9.94710729 0.16379285 5.1496471 0 0 Z " fill="#DA7832" transform="translate(152,102)"/>
<path d="M0 0 C0 6.93 0 13.86 0 21 C-0.66 21 -1.32 21 -2 21 C-2 15.06 -2 9.12 -2 3 C-3.65 3.33 -5.3 3.66 -7 4 C-3.375 0 -3.375 0 0 0 Z " fill="#EAE278" transform="translate(151,33)"/>
<path d="M0 0 C0.7734375 0.495 0.7734375 0.495 1.5625 1 C4.78026512 2.32010877 7.5570528 2.13242105 11 2 C11 3.32 11 4.64 11 6 C11.7425 6.28875 12.485 6.5775 13.25 6.875 C15.56739797 7.82302644 17.77917115 8.84845911 20 10 C20 10.66 20 11.32 20 12 C16.87281524 11.35762119 14.45142467 10.27319746 11.6875 8.6875 C10.90890625 8.2440625 10.1303125 7.800625 9.328125 7.34375 C8.17570312 6.67859375 8.17570312 6.67859375 7 6 C5.64589871 5.22905182 4.29173948 4.4582054 2.9375 3.6875 C1.968125 3.130625 0.99875 2.57375 0 2 C0 1.34 0 0.68 0 0 Z " fill="#1BC65B" transform="translate(52,118)"/>
<path d="M0 0 C0.33 0.99 0.66 1.98 1 3 C0.20335937 3.37511719 -0.59328125 3.75023437 -1.4140625 4.13671875 C-8.37230834 7.39240823 -8.37230834 7.39240823 -14.5 11.9375 C-15.325 12.618125 -16.15 13.29875 -17 14 C-19.15625 13.62890625 -19.15625 13.62890625 -21 13 C-17.87596516 11.01930668 -14.75061036 9.04070598 -11.625 7.0625 C-10.73554687 6.49853516 -9.84609375 5.93457031 -8.9296875 5.35351562 C-7.65351563 4.54624023 -7.65351563 4.54624023 -6.3515625 3.72265625 C-5.17327881 2.97640991 -5.17327881 2.97640991 -3.97119141 2.21508789 C-2 1 -2 1 0 0 Z " fill="#D87533" transform="translate(136,127)"/>
<path d="M0 0 C0.99 0.495 0.99 0.495 2 1 C2 6.94 2 12.88 2 19 C3.65 19 5.3 19 7 19 C7 19.33 7 19.66 7 20 C4.69 20.33 2.38 20.66 0 21 C0 14.07 0 7.14 0 0 Z " fill="#FDFBDC" transform="translate(151,33)"/>
<path d="M0 0 C1.70884005 1.62339805 3.37446717 3.29319053 5 5 C5 7 5 7 3.625 8.5 C3.08875 8.995 2.5525 9.49 2 10 C1.34 10.66 0.68 11.32 0 12 C-0.268125 11.401875 -0.53625 10.80375 -0.8125 10.1875 C-1.98493467 8.02775192 -3.19369282 6.64209744 -5 5 C-3.68 4.67 -2.36 4.34 -1 4 C-0.67 2.68 -0.34 1.36 0 0 Z " fill="#9F9F9F" transform="translate(101,34)"/>
<path d="M0 0 C2 2 4 4 6 6 C3.03 8.475 3.03 8.475 0 11 C-1.65 9.02 -3.3 7.04 -5 5 C-3.35 3.35 -1.7 1.7 0 0 Z " fill="#989898" transform="translate(93,22)"/>
<path d="M0 0 C0.99 0 1.98 0 3 0 C3 4.95 3 9.9 3 15 C2.01 15 1.02 15 0 15 C0 10.05 0 5.1 0 0 Z " fill="#434343" transform="translate(122,165)"/>
<path d="M0 0 C0.33 0.66 0.66 1.32 1 2 C3.91652174 2.16681109 3.91652174 2.16681109 7 2 C7.66 1.34 8.32 0.68 9 0 C9 1.32 9 2.64 9 4 C6.69 4.33 4.38 4.66 2 5 C4.97 5.495 4.97 5.495 8 6 C7.67 6.66 7.34 7.32 7 8 C1.54545455 8.36363636 1.54545455 8.36363636 -0.875 6.75 C-2 5 -2 5 -2 1 C-1.34 0.67 -0.68 0.34 0 0 Z " fill="#2E2E2E" transform="translate(159,172)"/>
<path d="M0 0 C4.75 0.75 4.75 0.75 7 3 C6.42307692 9.57692308 6.42307692 9.57692308 5 11 C3.00041636 11.04080783 0.99954746 11.04254356 -1 11 C0 9 0 9 3 8 C3.33 7.01 3.66 6.02 4 5 C3.67 4.34 3.34 3.68 3 3 C2.01 2.67 1.02 2.34 0 2 C0 1.34 0 0.68 0 0 Z " fill="#383838" transform="translate(81,169)"/>
<path d="M0 0 C-0.08984375 1.734375 -0.08984375 1.734375 -1 4 C-3.17752194 5.58470389 -5.23776911 6.92718158 -7.5625 8.25 C-8.48579102 8.79527344 -8.48579102 8.79527344 -9.42773438 9.3515625 C-10.94526033 10.2456088 -12.47180439 11.12431628 -14 12 C-14.33 11.34 -14.66 10.68 -15 10 C-10 5 -10 5 -7.375 4.875 C-6.59125 4.91625 -5.8075 4.9575 -5 5 C-4.87625 4.360625 -4.7525 3.72125 -4.625 3.0625 C-4.41875 2.381875 -4.2125 1.70125 -4 1 C-2 0 -2 0 0 0 Z " fill="#F8D256" transform="translate(151,115)"/>
<path d="M0 0 C1.98362069 2.91708924 1.9876191 4.12380904 1.625 7.75 C1.41875 8.8225 1.2125 9.895 1 11 C-0.98 9.35 -2.96 7.7 -5 6 C-3.35 4.02 -1.7 2.04 0 0 Z " fill="#E8E8E8" transform="translate(62,169)"/>
<path d="M0 0 C2.20992759 1.2472468 4.41793663 2.49770247 6.625 3.75 C7.24246094 4.09804688 7.85992187 4.44609375 8.49609375 4.8046875 C12.44826266 7.05118351 16.24591788 9.43567314 20 12 C19.67 12.66 19.34 13.32 19 14 C18.34 14 17.68 14 17 14 C16 13 15 12 14 11 C10.21880142 8.16805503 10.21880142 8.16805503 5.875 6.5 C3.11369468 5.76365192 1.81458433 4.13861724 0 2 C0 1.34 0 0.68 0 0 Z " fill="#42BA46" transform="translate(64,41)"/>
<path d="M0 0 C3.63 1.98 7.26 3.96 11 6 C9.68 6.33 8.36 6.66 7 7 C7 6.34 7 5.68 7 5 C4.03 4.505 4.03 4.505 1 4 C1 8.95 1 13.9 1 19 C0.67 19 0.34 19 0 19 C0 12.73 0 6.46 0 0 Z " fill="#43B843" transform="translate(52,34)"/>
<path d="M0 0 C1.2065625 0.0309375 1.2065625 0.0309375 2.4375 0.0625 C2.7675 1.0525 3.0975 2.0425 3.4375 3.0625 C1.21815836 6.39151247 0.09066671 6.81273244 -3.5625 8.0625 C-3.60491723 5.72955225 -3.60342937 3.39547433 -3.5625 1.0625 C-2.5625 0.0625 -2.5625 0.0625 0 0 Z " fill="#F1F1F1" transform="translate(82.5625,171.9375)"/>
<path d="M0 0 C0 0.66 0 1.32 0 2 C-7.47321608 4.15721701 -14.21038876 5.46530864 -22 5 C-18.47773428 2.97469721 -14.95941784 2.20547112 -11 1.375 C-9.783125 1.11460937 -8.56625 0.85421875 -7.3125 0.5859375 C-4 0 -4 0 0 0 Z " fill="#DC2B49" transform="translate(136,142)"/>
<path d="M0 0 C7.17495089 1.55977193 14.83667205 4.75500808 19 11 C16.97954558 10.39816251 14.97888961 9.72693904 13 9 C12.67 8.34 12.34 7.68 12 7 C10.00945124 6.30562253 8.00744615 5.64389782 6 5 C3.98529902 4.02995879 1.98077953 3.03755118 0 2 C0 1.34 0 0.68 0 0 Z " fill="#16C474" transform="translate(76,134)"/>
<path d="M0 0 C0.66 0.33 1.32 0.66 2 1 C-0.64875428 4.7278764 -2.55370235 6.74591605 -7 8 C-7.99 8 -8.98 8 -10 8 C-10 8.66 -10 9.32 -10 10 C-11.32 9.67 -12.64 9.34 -14 9 C-11.00550156 5.38164772 -8.15121923 4.10510805 -3.8046875 2.7109375 C-1.78999386 2.05581127 -1.78999386 2.05581127 0 0 Z " fill="#E9E26E" transform="translate(142,37)"/>
<path d="M0 0 C4.875 0.875 4.875 0.875 6 2 C6.07179964 3.51928038 6.08392007 5.04167482 6.0625 6.5625 C6.05347656 7.38878906 6.04445312 8.21507812 6.03515625 9.06640625 C6.01775391 10.02353516 6.01775391 10.02353516 6 11 C5.01 11 4.02 11 3 11 C2.8046875 8.94921875 2.609375 6.8984375 2.4140625 4.84765625 C2.27742187 4.23792969 2.14078125 3.62820312 2 3 C1.34 2.67 0.68 2.34 0 2 C0 1.34 0 0.68 0 0 Z " fill="#424242" transform="translate(150,169)"/>
<path d="M0 0 C-1.24687592 0.96239452 -2.49764969 1.91974009 -3.75 2.875 C-4.44609375 3.40867187 -5.1421875 3.94234375 -5.859375 4.4921875 C-11.06145251 8.15642458 -11.06145251 8.15642458 -14.25 7.625 C-14.8275 7.41875 -15.405 7.2125 -16 7 C-15.01 6.67 -14.02 6.34 -13 6 C-12.67 5.34 -12.34 4.68 -12 4 C-11.34 4 -10.68 4 -10 4 C-10 3.34 -10 2.68 -10 2 C-8.68 2 -7.36 2 -6 2 C-6 1.34 -6 0.68 -6 0 C-3 -1 -3 -1 0 0 Z " fill="#F9F6C1" transform="translate(115,55)"/>
<path d="M0 0 C0.66 0.33 1.32 0.66 2 1 C2 2.65 2 4.3 2 6 C3.32 6.66 4.64 7.32 6 8 C6 8.66 6 9.32 6 10 C3.6875 10.25 3.6875 10.25 1 10 C-0.875 8.3125 -0.875 8.3125 -2 6 C-1.58974359 1.58974359 -1.58974359 1.58974359 0 0 Z " fill="#393939" transform="translate(65,170)"/>
<path d="M0 0 C0.99 0 1.98 0 3 0 C2.52140759 1.60433809 2.04210442 3.20846416 1.5625 4.8125 C1.29566406 5.70582031 1.02882813 6.59914062 0.75390625 7.51953125 C0.19612127 9.35473055 -0.39344575 11.18033726 -1 13 C-1.66 13 -2.32 13 -3 13 C-2.52060632 8.28596212 -2.03165952 4.33420699 0 0 Z " fill="#3B3B3B" transform="translate(36,165)"/>
<path d="M0 0 C0.99 0.33 1.98 0.66 3 1 C1.21190303 2.17213045 -0.58059125 3.33755526 -2.375 4.5 C-3.37273437 5.1496875 -4.37046875 5.799375 -5.3984375 6.46875 C-8 8 -8 8 -10 8 C-9.375 5.625 -9.375 5.625 -8 3 C-5 1.75 -5 1.75 -2 1 C-1.34 0.67 -0.68 0.34 0 0 Z " fill="#FACF52" transform="translate(116,137)"/>
<path d="M0 0 C5.19209404 -0.21192221 9.126739 0.4087311 14 2 C13.67 2.66 13.34 3.32 13 4 C11.3745692 3.85904936 9.74965949 3.71207913 8.125 3.5625 C7.22007813 3.48128906 6.31515625 3.40007813 5.3828125 3.31640625 C3 3 3 3 1 2 C0.67 2.66 0.34 3.32 0 4 C0 2.68 0 1.36 0 0 Z " fill="#23B2BC" transform="translate(37,52)"/>
<path d="M0 0 C1.65 0 3.3 0 5 0 C5.625 1.875 5.625 1.875 6 4 C5.34 4.66 4.68 5.32 4 6 C1.875 5.625 1.875 5.625 0 5 C0 3.35 0 1.7 0 0 Z " fill="#F2F2F2" transform="translate(43,172)"/>
<path d="M0 0 C1.65 0 3.3 0 5 0 C5 0.99 5 1.98 5 3 C4.01 3.495 4.01 3.495 3 4 C2.59270772 6.32156597 2.25561323 8.6568787 2 11 C1.34 11 0.68 11 0 11 C0 7.37 0 3.74 0 0 Z " fill="#383838" transform="translate(139,169)"/>
<path d="M0 0 C1.51400391 0.01740234 1.51400391 0.01740234 3.05859375 0.03515625 C4.07050781 0.04417969 5.08242187 0.05320313 6.125 0.0625 C7.29869141 0.07990234 7.29869141 0.07990234 8.49609375 0.09765625 C8.49609375 0.42765625 8.49609375 0.75765625 8.49609375 1.09765625 C5.91356482 1.60215027 3.33020672 2.10139926 0.74609375 2.59765625 C-0.34832031 2.81228516 -0.34832031 2.81228516 -1.46484375 3.03125 C-4.89734157 3.68654504 -7.99560116 4.09765625 -11.50390625 4.09765625 C-11.50390625 3.43765625 -11.50390625 2.77765625 -11.50390625 2.09765625 C-9.453125 1.86979167 -7.40234375 1.64192708 -5.3515625 1.4140625 C-2.80701946 0.97831623 -2.79909069 0.1091689 0 0 Z " fill="#F26157" transform="translate(139.50390625,138.90234375)"/>
<path d="M0 0 C1.67542976 0.28604898 3.34385343 0.61781233 5 1 C4.67 2.65 4.34 4.3 4 6 C2.68 5.67 1.36 5.34 0 5 C-0.5625 3.0625 -0.5625 3.0625 -1 1 C-0.67 0.67 -0.34 0.34 0 0 Z " fill="#F6F6F6" transform="translate(67,172)"/>
<path d="M0 0 C-1.43457328 0.9834496 -2.87277406 1.96160921 -4.3125 2.9375 C-5.11300781 3.48277344 -5.91351563 4.02804688 -6.73828125 4.58984375 C-9 6 -9 6 -12 7 C-11.67 6.01 -11.34 5.02 -11 4 C-10.34 4 -9.68 4 -9 4 C-9 3.01 -9 2.02 -9 1 C-3.375 -1.125 -3.375 -1.125 0 0 Z " fill="#FDFCD8" transform="translate(132,44)"/>
<path d="M0 0 C0.99 0.33 1.98 0.66 3 1 C3 1.66 3 2.32 3 3 C5.97 3.495 5.97 3.495 9 4 C8.67 4.66 8.34 5.32 8 6 C5.1875 6.25 5.1875 6.25 2 6 C0.125 4 0.125 4 -1 2 C-0.67 1.34 -0.34 0.68 0 0 Z " fill="#393939" transform="translate(90,174)"/>
<path d="M0 0 C0.33 0 0.66 0 1 0 C1 3.96 1 7.92 1 12 C0.34 12 -0.32 12 -1 12 C-1.185625 10.576875 -1.185625 10.576875 -1.375 9.125 C-1.71687177 5.91332809 -1.71687177 5.91332809 -4 4 C-3.01 3.67 -2.02 3.34 -1 3 C-0.67 2.01 -0.34 1.02 0 0 Z " fill="#EDEDED" transform="translate(52,165)"/>
<path d="M0 0 C1.98270912 0.95098266 3.96108379 1.91100703 5.9375 2.875 C7.03964844 3.40867188 8.14179687 3.94234375 9.27734375 4.4921875 C12 6 12 6 13 8 C10.69 7.67 8.38 7.34 6 7 C6 6.34 6 5.68 6 5 C5.34 5 4.68 5 4 5 C4 4.34 4 3.68 4 3 C2.68 2.67 1.36 2.34 0 2 C0 1.34 0 0.68 0 0 Z " fill="#0CBEAD" transform="translate(63,126)"/>
<path d="M0 0 C0.99 0.33 1.98 0.66 3 1 C2.67 4.3 2.34 7.6 2 11 C1.34 11 0.68 11 0 11 C0 7.37 0 3.74 0 0 Z " fill="#2D2D2D" transform="translate(170,169)"/>
<path d="M0 0 C0.33 0.66 0.66 1.32 1 2 C3.02463255 2.65213292 3.02463255 2.65213292 5 3 C5 3.99 5 4.98 5 6 C3.35 6 1.7 6 0 6 C-0.66 4.68 -1.32 3.36 -2 2 C-1.34 1.34 -0.68 0.68 0 0 Z " fill="#D1D0CC" transform="translate(111,46)"/>
<path d="M0 0 C3.465 1.98 3.465 1.98 7 4 C6.67 4.66 6.34 5.32 6 6 C5.2575 5.835 4.515 5.67 3.75 5.5 C0.80993422 4.88074304 0.80993422 4.88074304 -3 5 C-3 4.34 -3 3.68 -3 3 C-2.01 3 -1.02 3 0 3 C0 2.01 0 1.02 0 0 Z " fill="#3EBB35" transform="translate(93,59)"/>
<path d="M0 0 C0 0.66 0 1.32 0 2 C-0.66 2 -1.32 2 -2 2 C-2.33 2.99 -2.66 3.98 -3 5 C-5.31 5.33 -7.62 5.66 -10 6 C-2.6 0 -2.6 0 0 0 Z " fill="#E6E56A" transform="translate(128,47)"/>
<path d="M0 0 C0.33 0.99 0.66 1.98 1 3 C3.31 3.33 5.62 3.66 8 4 C8.33 4.99 8.66 5.98 9 7 C3.54545455 7.36363636 3.54545455 7.36363636 1.125 5.75 C0 4 0 4 0 0 Z " fill="#333333" transform="translate(40,173)"/>
<path d="M0 0 C2.475 0.99 2.475 0.99 5 2 C5 2.66 5 3.32 5 4 C3.35 4.66 1.7 5.32 0 6 C-1.125 2.25 -1.125 2.25 0 0 Z " fill="#949494" transform="translate(101,37)"/>
<path d="M0 0 C2.86724686 0.57344937 3.8614515 0.8614515 6 3 C1.545 3.495 1.545 3.495 -3 4 C-2.01 2.68 -1.02 1.36 0 0 Z " fill="#FAF6E6" transform="translate(162,48)"/>
<path d="M0 0 C1.32 0.66 2.64 1.32 4 2 C4 2.66 4 3.32 4 4 C3.34 4 2.68 4 2 4 C2 4.66 2 5.32 2 6 C1.34 6 0.68 6 0 6 C-0.66 4.68 -1.32 3.36 -2 2 C-1.34 2 -0.68 2 0 2 C0 1.34 0 0.68 0 0 Z " fill="#A0A0A0" transform="translate(112,29)"/>
<path d="M0 0 C0.99 0 1.98 0 3 0 C3.66 1.98 4.32 3.96 5 6 C4.01 6.33 3.02 6.66 2 7 C1.34 4.69 0.68 2.38 0 0 Z " fill="#393939" transform="translate(25,165)"/>
<path d="M0 0 C0.5775 0.45375 1.155 0.9075 1.75 1.375 C3.7800333 2.84113516 5.73539843 3.94857784 8 5 C8 5.33 8 5.66 8 6 C6.02 6 4.04 6 2 6 C2 5.34 2 4.68 2 4 C1.34 4 0.68 4 0 4 C0 2.68 0 1.36 0 0 Z " fill="#06BFB5" transform="translate(51,118)"/>
<path d="M0 0 C6.52307692 1.47692308 6.52307692 1.47692308 8.9375 4.125 C9.288125 4.74375 9.63875 5.3625 10 6 C6.40992874 4.66654496 3.20429093 3.1056769 0 1 C0 0.67 0 0.34 0 0 Z " fill="#CDF9CE" transform="translate(78,49)"/>
<path d="M0 0 C2.64 0.66 5.28 1.32 8 2 C7.67 2.66 7.34 3.32 7 4 C5.02 4 3.04 4 1 4 C0.67 2.68 0.34 1.36 0 0 Z " fill="#393939" transform="translate(128,176)"/>
<path d="M0 0 C1.32 0 2.64 0 4 0 C3.67 2.64 3.34 5.28 3 8 C1.58622659 5.36095629 0.62759865 2.92879371 0 0 Z " fill="#E6E6E6" transform="translate(135,168)"/>
<path d="M0 0 C6.64615385 1.47692308 6.64615385 1.47692308 8.4375 4.125 C8.7159375 5.053125 8.7159375 5.053125 9 6 C5.9168649 4.80100302 2.93720508 3.52299523 0 2 C0 1.34 0 0.68 0 0 Z " fill="#15BE94" transform="translate(76,134)"/>
<path d="M0 0 C-5.75 4 -5.75 4 -8 4 C-8 3.34 -8 2.68 -8 2 C-7.34 2 -6.68 2 -6 2 C-6 1.34 -6 0.68 -6 0 C-3.50907189 -1.24546405 -2.58919267 -0.7767578 0 0 Z " fill="#FACF51" transform="translate(127,133)"/>
<path d="M0 0 C0.66 0.33 1.32 0.66 2 1 C-3.75 6 -3.75 6 -6 6 C-4.98545548 3.4636387 -4.3146444 2.20648539 -2 0.6875 C-1.34 0.460625 -0.68 0.23375 0 0 Z " fill="#E8DF54" transform="translate(108,59)"/>
<path d="M0 0 C-5.75 4 -5.75 4 -8 4 C-8 2.68 -8 1.36 -8 0 C-4.71303767 -0.79953138 -3.28976808 -1.09658936 0 0 Z " fill="#FEF4D4" transform="translate(144,37)"/>
<path d="M0 0 C1.68496298 0.96885372 3.35178756 1.96986723 5 3 C5 3.33 5 3.66 5 4 C2.36 4 -0.28 4 -3 4 C-2.01 2.68 -1.02 1.36 0 0 Z " fill="#7B7B7B" transform="translate(160,169)"/>
<path d="M0 0 C2.31 0 4.62 0 7 0 C6.01 1.485 6.01 1.485 5 3 C3.35 2.67 1.7 2.34 0 2 C0 1.34 0 0.68 0 0 Z " fill="#4D4D4D" transform="translate(66,169)"/>
<path d="M0 0 C1.65 0.33 3.3 0.66 5 1 C3.35 2.65 1.7 4.3 0 6 C-1 3 -1 3 0 0 Z " fill="#EBEAEB" transform="translate(37,169)"/>
<path d="M0 0 C3.71599191 -0.20086443 4.77208445 -0.1519437 8 2 C7.67 2.99 7.34 3.98 7 5 C3.535 3.02 3.535 3.02 0 1 C0 0.67 0 0.34 0 0 Z " fill="#D8FAD1" transform="translate(56,36)"/>
</svg>
